<svg viewBox="0 0 1584 396" width="100%" xmlns="http://www.w3.org/2000/svg" role="img">
<title>Crislaine Gomes — dados, BI, automação e IA</title>
<defs>
  <pattern id="grid" width="36" height="36" patternUnits="userSpaceOnUse"><path d="M36,0 L0,0 L0,36" fill="none" stroke="#121a28" stroke-width="1"/></pattern>
  <filter id="glow" x="-70%" y="-70%" width="240%" height="240%"><feGaussianBlur stdDeviation="3" result="b"/><feMerge><feMergeNode in="b"/><feMergeNode in="SourceGraphic"/></feMerge></filter>
  <filter id="glowS" x="-90%" y="-90%" width="280%" height="280%"><feGaussianBlur stdDeviation="1.8" result="b"/><feMerge><feMergeNode in="b"/><feMergeNode in="SourceGraphic"/></feMerge></filter>
  <linearGradient id="areaGrad" x1="0" y1="70" x2="0" y2="272" gradientUnits="userSpaceOnUse"><stop offset="0" stop-color="#4c9dff" stop-opacity="0.26"/><stop offset="1" stop-color="#4c9dff" stop-opacity="0"/></linearGradient>
  <linearGradient id="sig" x1="665" y1="0" x2="958" y2="0" gradientUnits="userSpaceOnUse"><stop offset="0" stop-color="#58a6ff"/><stop offset="1" stop-color="#8fb4ff"/></linearGradient>
  <clipPath id="plotClip"><rect x="664" y="66" width="296" height="210"/></clipPath>
  <clipPath id="typeReveal"><rect x="345" y="326" width="378" height="28"><animate attributeName="width" calcMode="discrete" dur="2.1s" begin="1s" fill="freeze" keyTimes="0;0.0370;0.0741;0.1111;0.1481;0.1852;0.2222;0.2593;0.2963;0.3333;0.3704;0.4074;0.4444;0.4815;0.5185;0.5556;0.5926;0.6296;0.6667;0.7037;0.7407;0.7778;0.8148;0.8519;0.8889;0.9259;0.9630;1" values="0;14;28;42;56;70;84;98;112;126;140;154;168;182;196;210;224;238;252;266;280;294;308;322;336;350;364;378"/></rect></clipPath>
</defs>
<rect width="1584" height="396" fill="#070b13"/>
<rect x="-36" y="-36" width="1656" height="468" fill="url(#grid)"><animateTransform attributeName="transform" type="translate" from="0,0" to="36,36" dur="50s" repeatCount="indefinite"/></rect>
<g fill="none" stroke="#3a4451" stroke-width="1.4"><path d="M24,34 L24,20 L44,20"/><path d="M1560,34 L1560,20 L1540,20"/><path d="M24,362 L24,376 L44,376"/><path d="M1560,362 L1560,376 L1540,376"/></g>
<text x="96" y="20" fill="#3a4451" font-size="10" font-family="monospace" letter-spacing="1">01</text>
<text x="1470" y="20" fill="#3a4451" font-size="10" font-family="monospace" letter-spacing="1">A/26</text>
<line x1="57" y1="34" x2="57" y2="300" stroke="#58a6ff" stroke-width="2"/>
<g stroke="#3a4451" stroke-width="1"><line x1="60" y1="44" x2="66" y2="44"/><line x1="60" y1="60" x2="66" y2="60"/><line x1="60" y1="76" x2="66" y2="76"/><line x1="60" y1="92" x2="66" y2="92"/><line x1="60" y1="108" x2="66" y2="108"/><line x1="60" y1="124" x2="66" y2="124"/><line x1="60" y1="140" x2="66" y2="140"/><line x1="60" y1="156" x2="66" y2="156"/><line x1="60" y1="172" x2="66" y2="172"/><line x1="60" y1="188" x2="66" y2="188"/><line x1="60" y1="204" x2="66" y2="204"/><line x1="60" y1="220" x2="66" y2="220"/><line x1="60" y1="236" x2="66" y2="236"/><line x1="60" y1="252" x2="66" y2="252"/><line x1="60" y1="268" x2="66" y2="268"/><line x1="60" y1="284" x2="66" y2="284"/></g>

<!-- NAME BLOCK (deslocado p/ preencher o vão da foto) -->
<g transform="translate(-238,0)">
<g fill="none" stroke="#3a4451" stroke-width="1.2" opacity="0.8"><path d="M330,26 L330,14 L636,14 L636,26"/><path d="M330,318 L330,330 L636,330 L636,318"/></g>
<text x="345" y="37" fill="#58a6ff" font-size="14" font-family="monospace" letter-spacing="3">PERFIL PROFISSIONAL - 2026<animate attributeName="opacity" values="0;1" dur="0.6s" fill="freeze"/></text>
<g><animateTransform attributeName="transform" type="translate" from="0,16" to="0,0" dur="0.7s" begin="0.1s" calcMode="spline" keySplines="0.16 1 0.3 1" fill="freeze"/><animate attributeName="opacity" values="0;1" dur="0.6s" begin="0.1s" fill="freeze"/>
<text x="342" y="152" fill="#f0ead6" font-size="86" font-family="'Arial Narrow','Roboto Condensed',Arial,sans-serif" font-weight="800" letter-spacing="1">CRISLAINE</text>
<text x="342" y="240" fill="#f0ead6" font-size="86" font-family="'Arial Narrow','Roboto Condensed',Arial,sans-serif" font-weight="800" letter-spacing="1">GOMES</text></g>
<rect x="330" y="296" width="10" height="10" fill="#58a6ff"/>
<line x1="346" y1="301" x2="636" y2="301" stroke="#58a6ff" stroke-width="1.4" stroke-dasharray="60,6,4,6"/>
<text x="345" y="345" fill="#8b93e8" font-size="18" font-family="monospace" letter-spacing="3" clip-path="url(#typeReveal)">DADOS • BI • IA • AUTOMAÇÃO</text>
<rect x="723" y="330" width="9" height="19" fill="#8b93e8"><animate attributeName="x" calcMode="discrete" dur="2.1s" begin="1s" fill="freeze" keyTimes="0;0.0370;0.0741;0.1111;0.1481;0.1852;0.2222;0.2593;0.2963;0.3333;0.3704;0.4074;0.4444;0.4815;0.5185;0.5556;0.5926;0.6296;0.6667;0.7037;0.7407;0.7778;0.8148;0.8519;0.8889;0.9259;0.9630;1" values="345;359;373;387;401;415;429;443;457;471;485;499;513;527;541;555;569;583;597;611;625;639;653;667;681;695;709;723"/><animate attributeName="opacity" values="1;0;1" keyTimes="0;0.5;1" calcMode="discrete" dur="1s" begin="3.1s" repeatCount="indefinite"/></rect>
</g>

<!-- SIGNAL -->
<g opacity="1" transform="translate(-120,0)"><animate attributeName="opacity" values="0;1" dur="0.6s" begin="0.4s" fill="freeze"/>
<text x="655" y="37" fill="#58a6ff" font-size="13" font-family="monospace" letter-spacing="1.5">SINAL - ANÁLISE E MELHORIA DE PROCESSOS</text>
<g fill="none" stroke="#3a4451" stroke-width="1.2" opacity="0.6"><path d="M664,80 L664,66 L690,66"/><path d="M960,80 L960,66 L934,66"/></g>
<g stroke="#1c2532" stroke-width="1"><line x1="665" y1="66" x2="665" y2="272"/><line x1="665" y1="272" x2="960" y2="272"/></g>
<g clip-path="url(#plotClip)" stroke="#121a28" stroke-width="1"><line x1="665" y1="90" x2="960" y2="90"/><line x1="665" y1="116" x2="960" y2="116"/><line x1="665" y1="142" x2="960" y2="142"/><line x1="665" y1="168" x2="960" y2="168"/><line x1="665" y1="194" x2="960" y2="194"/><line x1="665" y1="220" x2="960" y2="220"/><line x1="665" y1="246" x2="960" y2="246"/></g>
<g clip-path="url(#plotClip)" stroke="#4c9dff" stroke-width="1" opacity="0.22"><line x1="672" y1="272" x2="672" y2="240.3"/><line x1="681" y1="272" x2="681" y2="222.8"/><line x1="690" y1="272" x2="690" y2="212.0"/><line x1="699" y1="272" x2="699" y2="216.0"/><line x1="708" y1="272" x2="708" y2="226.0"/><line x1="717" y1="272" x2="717" y2="228.4"/><line x1="726" y1="272" x2="726" y2="220.6"/><line x1="735" y1="272" x2="735" y2="208.0"/><line x1="744" y1="272" x2="744" y2="194.6"/><line x1="753" y1="272" x2="753" y2="183.0"/><line x1="762" y1="272" x2="762" y2="176.0"/><line x1="771" y1="272" x2="771" y2="177.6"/><line x1="780" y1="272" x2="780" y2="185.8"/><line x1="789" y1="272" x2="789" y2="195.0"/><line x1="798" y1="272" x2="798" y2="199.1"/><line x1="807" y1="272" x2="807" y2="193.5"/><line x1="816" y1="272" x2="816" y2="179.0"/><line x1="825" y1="272" x2="825" y2="160.8"/><line x1="834" y1="272" x2="834" y2="143.6"/><line x1="843" y1="272" x2="843" y2="131.8"/><line x1="852" y1="272" x2="852" y2="130.2"/><line x1="861" y1="272" x2="861" y2="136.9"/><line x1="870" y1="272" x2="870" y2="147.8"/><line x1="879" y1="272" x2="879" y2="159.3"/><line x1="888" y1="272" x2="888" y2="166.0"/><line x1="897" y1="272" x2="897" y2="162.8"/><line x1="906" y1="272" x2="906" y2="150.2"/><line x1="915" y1="272" x2="915" y2="139.0"/><line x1="924" y1="272" x2="924" y2="129.8"/><line x1="933" y1="272" x2="933" y2="120.6"/><line x1="942" y1="272" x2="942" y2="111.4"/><line x1="951" y1="272" x2="951" y2="102.2"/></g>
<path d="M665.0,255.0 C669.2,247.8 681.2,216.5 690.0,212.0 C698.8,207.5 706.0,234.0 718.0,228.0 C730.0,222.0 748.0,181.0 762.0,176.0 C776.0,171.0 788.0,205.7 802.0,198.0 C816.0,190.3 831.7,135.3 846.0,130.0 C860.3,124.7 876.7,164.3 888.0,166.0 C899.3,167.7 902.3,151.8 914.0,140.0 C925.7,128.2 950.7,102.5 958.0,95.0 L958.0,272 L665.0,272 Z" fill="url(#areaGrad)" stroke="none"/>
<path id="signal" d="M665.0,255.0 C669.2,247.8 681.2,216.5 690.0,212.0 C698.8,207.5 706.0,234.0 718.0,228.0 C730.0,222.0 748.0,181.0 762.0,176.0 C776.0,171.0 788.0,205.7 802.0,198.0 C816.0,190.3 831.7,135.3 846.0,130.0 C860.3,124.7 876.7,164.3 888.0,166.0 C899.3,167.7 902.3,151.8 914.0,140.0 C925.7,128.2 950.7,102.5 958.0,95.0" fill="none" stroke="url(#sig)" stroke-width="2.6" stroke-linecap="round" stroke-linejoin="round" filter="url(#glow)" stroke-dasharray="452" stroke-dashoffset="0"><animate attributeName="stroke-dashoffset" values="452;0" dur="1.7s" begin="0.5s" calcMode="spline" keySplines="0.35 0 0.15 1" fill="freeze"/></path>
<circle cx="690" cy="212" r="4.5" fill="#4c9dff" filter="url(#glowS)"><animate attributeName="r" values="0;5.4;4.5" keyTimes="0;0.7;1" dur="0.5s" begin="0.50s" calcMode="spline" keySplines="0.42 0 0.58 1;0.42 0 0.58 1" fill="freeze"/></circle><circle cx="718" cy="228" r="4.5" fill="#4c9dff" filter="url(#glowS)"><animate attributeName="r" values="0;5.4;4.5" keyTimes="0;0.7;1" dur="0.5s" begin="0.59s" calcMode="spline" keySplines="0.42 0 0.58 1;0.42 0 0.58 1" fill="freeze"/></circle><circle cx="762" cy="176" r="4.5" fill="#4c9dff" filter="url(#glowS)"><animate attributeName="r" values="0;5.4;4.5" keyTimes="0;0.7;1" dur="0.5s" begin="0.68s" calcMode="spline" keySplines="0.42 0 0.58 1;0.42 0 0.58 1" fill="freeze"/></circle><circle cx="802" cy="198" r="4.5" fill="#4c9dff" filter="url(#glowS)"><animate attributeName="r" values="0;5.4;4.5" keyTimes="0;0.7;1" dur="0.5s" begin="0.77s" calcMode="spline" keySplines="0.42 0 0.58 1;0.42 0 0.58 1" fill="freeze"/></circle><circle cx="846" cy="130" r="4.5" fill="#4c9dff" filter="url(#glowS)"><animate attributeName="r" values="0;5.4;4.5" keyTimes="0;0.7;1" dur="0.5s" begin="0.86s" calcMode="spline" keySplines="0.42 0 0.58 1;0.42 0 0.58 1" fill="freeze"/></circle><circle cx="888" cy="166" r="4.5" fill="#4c9dff" filter="url(#glowS)"><animate attributeName="r" values="0;5.4;4.5" keyTimes="0;0.7;1" dur="0.5s" begin="0.95s" calcMode="spline" keySplines="0.42 0 0.58 1;0.42 0 0.58 1" fill="freeze"/></circle><circle cx="914" cy="140" r="4.5" fill="#4c9dff" filter="url(#glowS)"><animate attributeName="r" values="0;5.4;4.5" keyTimes="0;0.7;1" dur="0.5s" begin="1.04s" calcMode="spline" keySplines="0.42 0 0.58 1;0.42 0 0.58 1" fill="freeze"/></circle><circle cx="958" cy="95" r="4.5" fill="#4c9dff" filter="url(#glowS)"><animate attributeName="r" values="0;5.4;4.5" keyTimes="0;0.7;1" dur="0.5s" begin="1.13s" calcMode="spline" keySplines="0.42 0 0.58 1;0.42 0 0.58 1" fill="freeze"/></circle><circle r="4" fill="#bfe0ff" filter="url(#glow)" opacity="0"><animate attributeName="opacity" values="0;0;1;1;0" keyTimes="0;0.12;0.15;0.9;1" dur="3.4s" begin="2s" repeatCount="indefinite"/><animateMotion dur="3.4s" begin="2s" keyPoints="0;0;1" keyTimes="0;0.12;1" calcMode="spline" keySplines="0 0 1 1;0.42 0 0.58 1" repeatCount="indefinite"><mpath href="#signal"/></animateMotion></circle><line x1="958" y1="95" x2="980" y2="140" stroke="#2a3444" stroke-width="1" opacity="0.5"/></g>

<!-- NETWORK -->
<g opacity="1" transform="translate(-120,0)"><animate attributeName="opacity" values="0;1" dur="0.7s" begin="0.7s" fill="freeze"/><g stroke="#2a3444" stroke-width="1" opacity="0.7"><line x1="989" y1="140" x2="1086" y2="54"/><line x1="989" y1="140" x2="1056" y2="242"/><line x1="1056" y1="242" x2="1114" y2="318"/></g><g stroke="#58a6ff" stroke-width="1" stroke-dasharray="2,4" opacity="0.45"><line x1="989" y1="140" x2="1075" y2="158"/><line x1="1086" y1="54" x2="1075" y2="158"/><line x1="1086" y1="54" x2="1152" y2="122"/><line x1="1075" y1="158" x2="1152" y2="122"/><line x1="1075" y1="158" x2="1056" y2="242"/><line x1="1056" y1="242" x2="1152" y2="122"/><line x1="1152" y1="122" x2="1114" y2="318"/><line x1="1075" y1="158" x2="1114" y2="318"/><animate attributeName="stroke-dashoffset" values="0;-12" dur="0.9s" repeatCount="indefinite"/></g><circle cx="1044" cy="87" r="2.5" fill="#58a6ff"/><circle cx="1040" cy="214" r="2.5" fill="#58a6ff"/><circle cx="1135" cy="214" r="3" fill="#58a6ff"/><circle cx="989" cy="140" r="9" fill="none" stroke="#58a6ff" stroke-width="1.4"/><circle cx="989" cy="140" r="3.5" fill="#58a6ff" filter="url(#glowS)"/><circle cx="989" cy="140" r="9" fill="none" stroke="#58a6ff" stroke-width="1.5" opacity="0"><animate attributeName="r" values="9;20" dur="2.6s" calcMode="spline" keySplines="0.2 0 0.4 1" repeatCount="indefinite"/><animate attributeName="opacity" values="0.7;0" dur="2.6s" repeatCount="indefinite"/></circle><circle cx="1086" cy="54" r="22" fill="#070b13" stroke="#58a6ff" stroke-width="1.6" filter="url(#glowS)"/><circle cx="1086" cy="54" r="18" fill="none" stroke="#58a6ff" stroke-width="1" opacity="0.6"><animate attributeName="opacity" values="0.4;1;0.4" dur="3s" begin="0s" calcMode="spline" keySplines="0.42 0 0.58 1;0.42 0 0.58 1" repeatCount="indefinite"/></circle><circle cx="1080" cy="48" r="1.6" fill="#dbe6f5"/><circle cx="1086" cy="48" r="1.6" fill="#dbe6f5"/><circle cx="1092" cy="48" r="1.6" fill="#dbe6f5"/><circle cx="1080" cy="54" r="1.6" fill="#dbe6f5"/><circle cx="1086" cy="54" r="1.6" fill="#dbe6f5"/><circle cx="1092" cy="54" r="1.6" fill="#dbe6f5"/><circle cx="1080" cy="60" r="1.6" fill="#dbe6f5"/><circle cx="1086" cy="60" r="1.6" fill="#dbe6f5"/><circle cx="1092" cy="60" r="1.6" fill="#dbe6f5"/><circle cx="1075" cy="158" r="22" fill="#070b13" stroke="#58a6ff" stroke-width="1.6" filter="url(#glowS)"/><circle cx="1075" cy="158" r="18" fill="none" stroke="#58a6ff" stroke-width="1" opacity="0.6"><animate attributeName="opacity" values="0.4;1;0.4" dur="3s" begin="0.6s" calcMode="spline" keySplines="0.42 0 0.58 1;0.42 0 0.58 1" repeatCount="indefinite"/></circle><rect x="1069" y="152" width="4.5" height="4.5" rx="1" fill="#dbe6f5"/><rect x="1077" y="152" width="4.5" height="4.5" rx="1" fill="#dbe6f5"/><rect x="1069" y="160" width="4.5" height="4.5" rx="1" fill="#dbe6f5"/><rect x="1077" y="160" width="4.5" height="4.5" rx="1" fill="#dbe6f5"/><circle cx="1152" cy="122" r="22" fill="#070b13" stroke="#7f77dd" stroke-width="1.6" filter="url(#glowS)"/><circle cx="1152" cy="122" r="18" fill="none" stroke="#7f77dd" stroke-width="1" opacity="0.6"><animate attributeName="opacity" values="0.4;1;0.4" dur="3s" begin="1.2s" calcMode="spline" keySplines="0.42 0 0.58 1;0.42 0 0.58 1" repeatCount="indefinite"/></circle><line x1="1144" y1="129" x2="1160" y2="129" stroke="#dbe6f5" stroke-width="1.2"/><rect x="1145" y="124" width="4" height="5" fill="#dbe6f5"/><rect x="1151" y="120" width="4" height="9" fill="#dbe6f5"/><rect x="1157" y="116" width="4" height="13" fill="#dbe6f5"/><circle cx="1056" cy="242" r="22" fill="#070b13" stroke="#7f77dd" stroke-width="1.6" filter="url(#glowS)"/><circle cx="1056" cy="242" r="18" fill="none" stroke="#7f77dd" stroke-width="1" opacity="0.6"><animate attributeName="opacity" values="0.4;1;0.4" dur="3s" begin="1.8s" calcMode="spline" keySplines="0.42 0 0.58 1;0.42 0 0.58 1" repeatCount="indefinite"/></circle><rect x="1047" y="234" width="8" height="7" rx="1.2" fill="none" stroke="#dbe6f5" stroke-width="1.3"/><rect x="1054" y="244" width="8" height="7" rx="1.2" fill="none" stroke="#dbe6f5" stroke-width="1.3"/><rect x="1045" y="245" width="6" height="5" rx="1" fill="#dbe6f5"/><path d="M1051,238 H1055 M1058,241 V244" stroke="#dbe6f5" stroke-width="1.1" fill="none"/><circle cx="1114" cy="318" r="22" fill="#070b13" stroke="#58a6ff" stroke-width="1.6" filter="url(#glowS)"/><circle cx="1114" cy="318" r="18" fill="none" stroke="#58a6ff" stroke-width="1" opacity="0.6"><animate attributeName="opacity" values="0.4;1;0.4" dur="3s" begin="2.4s" calcMode="spline" keySplines="0.42 0 0.58 1;0.42 0 0.58 1" repeatCount="indefinite"/></circle><ellipse cx="1114" cy="310" rx="9" ry="3.2" fill="none" stroke="#dbe6f5" stroke-width="1.3"/><path d="M1105,310 V325 A9,3.2 0 0 0 1123,325 V310" fill="none" stroke="#dbe6f5" stroke-width="1.3"/><path d="M1105,316.5 A9,3.2 0 0 0 1123,316.5" fill="none" stroke="#dbe6f5" stroke-width="1"/><circle r="2.6" fill="#bfe0ff" filter="url(#glowS)" opacity="0.9"><animate attributeName="cx" values="989;1086;1075;1152;1114" keyTimes="0;0.2500;0.5000;0.7500;1" calcMode="spline" keySplines="0.42 0 0.58 1;0.42 0 0.58 1;0.42 0 0.58 1;0.42 0 0.58 1" dur="4.6s" begin="0.0s" repeatCount="indefinite"/><animate attributeName="cy" values="140;54;158;122;318" keyTimes="0;0.2500;0.5000;0.7500;1" calcMode="spline" keySplines="0.42 0 0.58 1;0.42 0 0.58 1;0.42 0 0.58 1;0.42 0 0.58 1" dur="4.6s" begin="0.0s" repeatCount="indefinite"/></circle><circle r="2.6" fill="#bfe0ff" filter="url(#glowS)" opacity="0.9"><animate attributeName="cx" values="989;1056;1114" keyTimes="0;0.5000;1" calcMode="spline" keySplines="0.42 0 0.58 1;0.42 0 0.58 1" dur="3.0s" begin="1.2s" repeatCount="indefinite"/><animate attributeName="cy" values="140;242;318" keyTimes="0;0.5000;1" calcMode="spline" keySplines="0.42 0 0.58 1;0.42 0 0.58 1" dur="3.0s" begin="1.2s" repeatCount="indefinite"/></circle><circle r="2.6" fill="#bfe0ff" filter="url(#glowS)" opacity="0.9"><animate attributeName="cx" values="1075;1152" keyTimes="0;1" calcMode="spline" keySplines="0.42 0 0.58 1" dur="1.8s" begin="0.6s" repeatCount="indefinite"/><animate attributeName="cy" values="158;122" keyTimes="0;1" calcMode="spline" keySplines="0.42 0 0.58 1" dur="1.8s" begin="0.6s" repeatCount="indefinite"/></circle></g>

<!-- INDEX -->
<g transform="translate(-40,0)">
<text x="1212" y="37" fill="#58a6ff" font-size="13" font-family="monospace" letter-spacing="1.5">ÍNDICE DE COMPETÊNCIAS</text>
<line x1="1212" y1="48" x2="1470" y2="48" stroke="#1c2532" stroke-width="1"/>
<line x1="1478" y1="48" x2="1556" y2="48" stroke="#58a6ff" stroke-width="1" stroke-dasharray="3,3" opacity="0.7"/>
<g opacity="1"><animate attributeName="opacity" values="0;1" dur="0.5s" begin="0.62s" fill="freeze"/><text x="1210" y="96" fill="#58a6ff" font-size="14" font-family="monospace" font-weight="700">01</text><line x1="1240" y1="81" x2="1240" y2="97" stroke="#2a3444" stroke-width="1.4"/><text x="1254" y="96" fill="#c9d1d9" font-size="12.5" font-family="monospace">POWER BI</text><rect x="1512" y="86" width="2.2" height="2.2" fill="#58a6ff" opacity="0.9"/><rect x="1517" y="86" width="2.2" height="2.2" fill="#58a6ff" opacity="0.9"/><rect x="1522" y="86" width="2.2" height="2.2" fill="#58a6ff" opacity="0.9"/><rect x="1527" y="86" width="2.2" height="2.2" fill="#58a6ff" opacity="0.9"/><rect x="1532" y="86" width="2.2" height="2.2" fill="#2a3444" opacity="0.5"/><rect x="1537" y="86" width="2.2" height="2.2" fill="#2a3444" opacity="0.5"/><rect x="1512" y="93" width="2.2" height="2.2" fill="#58a6ff" opacity="0.9"/><rect x="1517" y="93" width="2.2" height="2.2" fill="#58a6ff" opacity="0.9"/><rect x="1522" y="93" width="2.2" height="2.2" fill="#58a6ff" opacity="0.9"/><rect x="1527" y="93" width="2.2" height="2.2" fill="#58a6ff" opacity="0.9"/><rect x="1532" y="93" width="2.2" height="2.2" fill="#2a3444" opacity="0.5"/><rect x="1537" y="93" width="2.2" height="2.2" fill="#2a3444" opacity="0.5"/><rect x="1548" y="87" width="8" height="8" fill="#58a6ff"><animate attributeName="opacity" values="1;0.4;1" dur="2.6s" begin="0.0s" calcMode="spline" keySplines="0.42 0 0.58 1;0.42 0 0.58 1" repeatCount="indefinite"/></rect><line x1="1210" y1="113" x2="1556" y2="113" stroke="#1c2532" stroke-width="1" opacity="0.5"/></g><g opacity="1"><animate attributeName="opacity" values="0;1" dur="0.5s" begin="0.70s" fill="freeze"/><text x="1210" y="138" fill="#58a6ff" font-size="14" font-family="monospace" font-weight="700">02</text><line x1="1240" y1="123" x2="1240" y2="139" stroke="#2a3444" stroke-width="1.4"/><text x="1254" y="138" fill="#c9d1d9" font-size="12.5" font-family="monospace">SQL</text><rect x="1512" y="128" width="2.2" height="2.2" fill="#58a6ff" opacity="0.9"/><rect x="1517" y="128" width="2.2" height="2.2" fill="#58a6ff" opacity="0.9"/><rect x="1522" y="128" width="2.2" height="2.2" fill="#58a6ff" opacity="0.9"/><rect x="1527" y="128" width="2.2" height="2.2" fill="#2a3444" opacity="0.5"/><rect x="1532" y="128" width="2.2" height="2.2" fill="#2a3444" opacity="0.5"/><rect x="1537" y="128" width="2.2" height="2.2" fill="#2a3444" opacity="0.5"/><rect x="1512" y="135" width="2.2" height="2.2" fill="#58a6ff" opacity="0.9"/><rect x="1517" y="135" width="2.2" height="2.2" fill="#58a6ff" opacity="0.9"/><rect x="1522" y="135" width="2.2" height="2.2" fill="#58a6ff" opacity="0.9"/><rect x="1527" y="135" width="2.2" height="2.2" fill="#2a3444" opacity="0.5"/><rect x="1532" y="135" width="2.2" height="2.2" fill="#2a3444" opacity="0.5"/><rect x="1537" y="135" width="2.2" height="2.2" fill="#2a3444" opacity="0.5"/><rect x="1548" y="129" width="8" height="8" fill="#58a6ff"><animate attributeName="opacity" values="1;0.4;1" dur="2.6s" begin="0.3s" calcMode="spline" keySplines="0.42 0 0.58 1;0.42 0 0.58 1" repeatCount="indefinite"/></rect><line x1="1210" y1="155" x2="1556" y2="155" stroke="#1c2532" stroke-width="1" opacity="0.5"/></g><g opacity="1"><animate attributeName="opacity" values="0;1" dur="0.5s" begin="0.78s" fill="freeze"/><text x="1210" y="180" fill="#58a6ff" font-size="14" font-family="monospace" font-weight="700">03</text><line x1="1240" y1="165" x2="1240" y2="181" stroke="#2a3444" stroke-width="1.4"/><text x="1254" y="180" fill="#c9d1d9" font-size="12.5" font-family="monospace">PYTHON</text><rect x="1512" y="170" width="2.2" height="2.2" fill="#58a6ff" opacity="0.9"/><rect x="1517" y="170" width="2.2" height="2.2" fill="#58a6ff" opacity="0.9"/><rect x="1522" y="170" width="2.2" height="2.2" fill="#2a3444" opacity="0.5"/><rect x="1527" y="170" width="2.2" height="2.2" fill="#2a3444" opacity="0.5"/><rect x="1532" y="170" width="2.2" height="2.2" fill="#2a3444" opacity="0.5"/><rect x="1537" y="170" width="2.2" height="2.2" fill="#2a3444" opacity="0.5"/><rect x="1512" y="177" width="2.2" height="2.2" fill="#58a6ff" opacity="0.9"/><rect x="1517" y="177" width="2.2" height="2.2" fill="#58a6ff" opacity="0.9"/><rect x="1522" y="177" width="2.2" height="2.2" fill="#2a3444" opacity="0.5"/><rect x="1527" y="177" width="2.2" height="2.2" fill="#2a3444" opacity="0.5"/><rect x="1532" y="177" width="2.2" height="2.2" fill="#2a3444" opacity="0.5"/><rect x="1537" y="177" width="2.2" height="2.2" fill="#2a3444" opacity="0.5"/><rect x="1548" y="171" width="8" height="8" fill="#58a6ff"><animate attributeName="opacity" values="1;0.4;1" dur="2.6s" begin="0.6s" calcMode="spline" keySplines="0.42 0 0.58 1;0.42 0 0.58 1" repeatCount="indefinite"/></rect><line x1="1210" y1="197" x2="1556" y2="197" stroke="#1c2532" stroke-width="1" opacity="0.5"/></g><g opacity="1"><animate attributeName="opacity" values="0;1" dur="0.5s" begin="0.86s" fill="freeze"/><text x="1210" y="222" fill="#58a6ff" font-size="14" font-family="monospace" font-weight="700">04</text><line x1="1240" y1="207" x2="1240" y2="223" stroke="#2a3444" stroke-width="1.4"/><text x="1254" y="222" fill="#c9d1d9" font-size="12.5" font-family="monospace">INTELIGÊNCIA ARTIFICIAL APLICADA</text><rect x="1512" y="212" width="2.2" height="2.2" fill="#58a6ff" opacity="0.9"/><rect x="1517" y="212" width="2.2" height="2.2" fill="#58a6ff" opacity="0.9"/><rect x="1522" y="212" width="2.2" height="2.2" fill="#58a6ff" opacity="0.9"/><rect x="1527" y="212" width="2.2" height="2.2" fill="#58a6ff" opacity="0.9"/><rect x="1532" y="212" width="2.2" height="2.2" fill="#2a3444" opacity="0.5"/><rect x="1537" y="212" width="2.2" height="2.2" fill="#2a3444" opacity="0.5"/><rect x="1512" y="219" width="2.2" height="2.2" fill="#58a6ff" opacity="0.9"/><rect x="1517" y="219" width="2.2" height="2.2" fill="#58a6ff" opacity="0.9"/><rect x="1522" y="219" width="2.2" height="2.2" fill="#58a6ff" opacity="0.9"/><rect x="1527" y="219" width="2.2" height="2.2" fill="#58a6ff" opacity="0.9"/><rect x="1532" y="219" width="2.2" height="2.2" fill="#2a3444" opacity="0.5"/><rect x="1537" y="219" width="2.2" height="2.2" fill="#2a3444" opacity="0.5"/><rect x="1548" y="213" width="8" height="8" fill="#58a6ff"><animate attributeName="opacity" values="1;0.4;1" dur="2.6s" begin="0.9s" calcMode="spline" keySplines="0.42 0 0.58 1;0.42 0 0.58 1" repeatCount="indefinite"/></rect><line x1="1210" y1="239" x2="1556" y2="239" stroke="#1c2532" stroke-width="1" opacity="0.5"/></g><g opacity="1"><animate attributeName="opacity" values="0;1" dur="0.5s" begin="0.94s" fill="freeze"/><text x="1210" y="264" fill="#58a6ff" font-size="14" font-family="monospace" font-weight="700">05</text><line x1="1240" y1="249" x2="1240" y2="265" stroke="#2a3444" stroke-width="1.4"/><text x="1254" y="264" fill="#c9d1d9" font-size="12.5" font-family="monospace">AUTOMAÇÃO DE PROCESSOS</text><rect x="1512" y="254" width="2.2" height="2.2" fill="#58a6ff" opacity="0.9"/><rect x="1517" y="254" width="2.2" height="2.2" fill="#58a6ff" opacity="0.9"/><rect x="1522" y="254" width="2.2" height="2.2" fill="#58a6ff" opacity="0.9"/><rect x="1527" y="254" width="2.2" height="2.2" fill="#2a3444" opacity="0.5"/><rect x="1532" y="254" width="2.2" height="2.2" fill="#2a3444" opacity="0.5"/><rect x="1537" y="254" width="2.2" height="2.2" fill="#2a3444" opacity="0.5"/><rect x="1512" y="261" width="2.2" height="2.2" fill="#58a6ff" opacity="0.9"/><rect x="1517" y="261" width="2.2" height="2.2" fill="#58a6ff" opacity="0.9"/><rect x="1522" y="261" width="2.2" height="2.2" fill="#58a6ff" opacity="0.9"/><rect x="1527" y="261" width="2.2" height="2.2" fill="#2a3444" opacity="0.5"/><rect x="1532" y="261" width="2.2" height="2.2" fill="#2a3444" opacity="0.5"/><rect x="1537" y="261" width="2.2" height="2.2" fill="#2a3444" opacity="0.5"/><rect x="1548" y="255" width="8" height="8" fill="#58a6ff"><animate attributeName="opacity" values="1;0.4;1" dur="2.6s" begin="1.2s" calcMode="spline" keySplines="0.42 0 0.58 1;0.42 0 0.58 1" repeatCount="indefinite"/></rect><line x1="1210" y1="281" x2="1556" y2="281" stroke="#1c2532" stroke-width="1" opacity="0.5"/></g><g opacity="1"><animate attributeName="opacity" values="0;1" dur="0.5s" begin="1.02s" fill="freeze"/><text x="1210" y="306" fill="#58a6ff" font-size="14" font-family="monospace" font-weight="700">06</text><line x1="1240" y1="291" x2="1240" y2="307" stroke="#2a3444" stroke-width="1.4"/><text x="1254" y="306" fill="#c9d1d9" font-size="12.5" font-family="monospace">POWER QUERY E EXCEL</text><rect x="1512" y="296" width="2.2" height="2.2" fill="#58a6ff" opacity="0.9"/><rect x="1517" y="296" width="2.2" height="2.2" fill="#58a6ff" opacity="0.9"/><rect x="1522" y="296" width="2.2" height="2.2" fill="#2a3444" opacity="0.5"/><rect x="1527" y="296" width="2.2" height="2.2" fill="#2a3444" opacity="0.5"/><rect x="1532" y="296" width="2.2" height="2.2" fill="#2a3444" opacity="0.5"/><rect x="1537" y="296" width="2.2" height="2.2" fill="#2a3444" opacity="0.5"/><rect x="1512" y="303" width="2.2" height="2.2" fill="#58a6ff" opacity="0.9"/><rect x="1517" y="303" width="2.2" height="2.2" fill="#58a6ff" opacity="0.9"/><rect x="1522" y="303" width="2.2" height="2.2" fill="#2a3444" opacity="0.5"/><rect x="1527" y="303" width="2.2" height="2.2" fill="#2a3444" opacity="0.5"/><rect x="1532" y="303" width="2.2" height="2.2" fill="#2a3444" opacity="0.5"/><rect x="1537" y="303" width="2.2" height="2.2" fill="#2a3444" opacity="0.5"/><rect x="1548" y="297" width="8" height="8" fill="#58a6ff"><animate attributeName="opacity" values="1;0.4;1" dur="2.6s" begin="1.5s" calcMode="spline" keySplines="0.42 0 0.58 1;0.42 0 0.58 1" repeatCount="indefinite"/></rect></g>
</g>
</svg>
